<svg width="11" height="10" viewBox="0 0 11 10" fill="none" xmlns="http://www.w3.org/2000/svg">
<path fill-rule="evenodd" clip-rule="evenodd" d="M0.560886 2.9986C0.939178 1.93398 1.81801 1.09632 3.00408 0.669902C4.19014 0.243488 5.58627 0.26323 6.88534 0.724806C7.85412 1.06902 8.7175 1.64095 9.36628 2.36824C10.0151 3.09554 10.4201 3.94556 10.5302 4.81079C10.6403 5.67602 10.4505 6.51759 9.98487 7.22912C9.51919 7.94064 8.79853 8.49016 7.91403 8.80816C7.02953 9.12616 6.0209 9.19834 5.0157 9.01562C4.01051 8.8329 3.05391 8.40349 2.26684 7.78164C1.47977 7.1598 0.897572 6.37346 0.593916 5.52208C0.29026 4.67071 0.278777 3.79253 0.560886 2.9986Z" fill="white"/>
</svg>
