<svg width="96" height="21" viewBox="0 0 96 21" fill="none" xmlns="http://www.w3.org/2000/svg">
<path fill-rule="evenodd" clip-rule="evenodd" d="M4.26643 16.7077C5.41929 16.7077 6.84187 16.585 7.8723 15.8451C9.44198 14.7414 10.0309 13.4902 10.0309 11.9449C10.0309 10.0561 9.14789 8.46172 6.30234 6.89204L5.41927 6.40154C3.48143 5.32208 3.13801 4.58606 3.13801 3.65407C3.13801 2.2314 4.53624 1.42213 6.08155 1.42213C7.47986 1.42213 8.16648 2.0107 8.48562 2.40314C8.95146 2.94268 9.04953 3.58067 9.04953 3.7768C9.04953 4.02224 9.12321 4.14458 9.2702 4.14458C9.44196 4.14458 9.54004 3.92378 9.54004 3.48231C9.54004 1.83894 9.61371 1.25037 9.61371 0.980551C9.61371 0.833169 9.51567 0.759768 9.31925 0.710833C8.75534 0.563355 7.6516 0.367323 6.25329 0.367323C3.26074 0.367323 0.807647 2.01069 0.807647 4.56176C0.807647 6.40155 1.64165 7.79949 4.19273 9.29576L5.44393 10.0317C7.35711 11.1598 7.57781 12.0676 7.57781 12.9753C7.57781 14.4469 6.44941 15.6244 4.58526 15.6244C3.23636 15.6244 1.61739 15.1092 1.15116 13.5639C1.02843 13.1961 0.955025 12.7545 0.955025 12.4844C0.955025 12.3373 0.930355 12.1413 0.734325 12.1413C0.562571 12.1413 0.464519 12.3621 0.464519 12.6808C0.439859 13.0243 0.341797 14.3242 0.341797 15.4527C0.341797 15.9185 0.415476 16.0166 0.7586 16.164C1.69106 16.585 3.0156 16.7077 4.26643 16.7077ZM28.403 18.1794C31.9595 20.2889 34.2407 21.0001 37.5521 21.0001C40.6675 21.0001 43.1692 19.9701 44.4694 19.3568C44.6165 19.2831 44.7392 19.2094 44.7392 19.0871C44.7392 18.9886 44.6412 18.8907 44.5431 18.8907C44.4448 18.8907 44.3467 18.9396 44.224 18.9886C42.7277 19.5529 41.1334 19.6513 40.0052 19.6513C38.5332 19.6513 35.7124 19.3811 31.1748 17.1736L26.931 15.1092C28.2313 14.2261 30.6349 11.9449 30.6349 8.26561C30.6349 3.38425 26.9557 0.367323 21.7802 0.367323C15.4515 0.367323 12.8271 5.0276 12.8271 8.43735C12.8271 12.1903 15.3045 16.7077 21.6328 16.7077C22.7613 16.7077 24.2575 16.487 25.0426 16.1883L28.403 18.1794ZM22.5158 15.575C19.0327 15.575 16.0404 12.9016 16.0404 7.94685C16.0404 3.18811 18.4688 1.47106 21.2896 1.47106C24.2575 1.47106 27.3973 3.85048 27.3973 8.82991C27.3973 14.8637 24.2575 15.575 22.5158 15.575ZM59.7756 11.1845C59.8739 11.1845 59.9473 11.2088 59.9964 11.3315L61.6644 15.526C61.7624 15.7714 61.6153 15.9676 61.4683 15.9922C61.2476 16.0166 61.1985 16.0903 61.1985 16.213C61.1985 16.36 61.4436 16.36 61.8361 16.3889C63.6511 16.4379 65.2212 16.4379 65.9815 16.4379C66.7909 16.4379 66.9135 16.3889 66.9135 16.213C66.9135 16.0659 66.8156 15.9922 66.6191 15.9922C66.374 15.9922 66.1286 15.9676 65.8098 15.9185C65.4173 15.8247 64.804 15.5549 63.97 13.674C62.5965 10.5223 58.9906 1.98594 58.4757 0.833174C58.2549 0.367327 58.1569 0.170898 57.8377 0.170898C57.6169 0.170898 57.4453 0.416345 57.2001 1.00491L51.5585 14.1281C51.1169 15.1829 50.7491 15.8205 49.7639 15.9676C49.5674 15.9676 49.3223 15.9922 49.1259 15.9922C48.9542 15.9922 48.8808 16.0903 48.8808 16.213C48.8808 16.3889 49.0032 16.4379 49.2734 16.4379C50.4056 16.4379 51.5584 16.3642 51.7792 16.3642C52.4661 16.3642 53.4715 16.4379 54.1832 16.4379C54.404 16.4379 54.5263 16.3889 54.5263 16.213C54.5263 16.0903 54.4773 15.9922 54.2076 15.9922H53.8887C53.2265 15.9922 53.0301 15.7715 53.0301 15.4037C53.0301 15.1582 53.1284 14.643 53.3492 14.1281L54.502 11.3315C54.551 11.2088 54.5754 11.1845 54.6981 11.1845H59.7756ZM55.1397 10.0317C55.0663 10.0317 55.0169 9.98265 55.0663 9.8843L57.1511 4.61078C57.1755 4.537 57.2001 4.4143 57.2738 4.4143C57.3228 4.4143 57.3472 4.537 57.3719 4.61078L59.4078 9.90899C59.4324 9.98268 59.4078 10.0317 59.3097 10.0317H55.1397ZM69.2682 10.3752C69.2682 12.2883 69.2682 13.9317 69.1702 14.8147C69.0965 15.428 68.9738 15.8205 68.5322 15.9185C68.3362 15.9676 68.0908 15.9922 67.7719 15.9922C67.5022 15.9922 67.4284 16.1149 67.4284 16.213C67.4284 16.36 67.5759 16.4379 67.8456 16.4379C68.704 16.4379 70.0776 16.3642 70.4948 16.3642C70.8136 16.3642 72.6044 16.4379 73.8552 16.4379C74.125 16.4379 74.2966 16.36 74.2966 16.213C74.2966 16.1149 74.1987 15.9922 74.0269 15.9922C73.7571 15.9922 73.291 15.9676 72.9721 15.9185C72.3099 15.8205 72.2118 15.428 72.1381 14.8147C72.04 13.9317 72.0154 12.3131 72.0154 10.3752V10.0807C72.0154 9.958 72.0891 9.90899 72.1871 9.90899L74.125 9.95801C74.272 9.95801 74.3947 9.98266 74.5174 10.1051C74.7872 10.4242 75.6949 11.8222 76.5533 12.9506C77.7551 14.5696 78.5648 15.5508 79.4969 16.0166C80.0612 16.311 80.6497 16.4379 81.8515 16.4379H83.9121C84.1819 16.4379 84.3289 16.3889 84.3289 16.213C84.3289 16.1149 84.2308 15.9922 84.0592 15.9922C83.8874 15.9922 83.765 15.9922 83.5443 15.9432C83.2008 15.8695 82.4405 15.7715 81.2383 14.5697C79.9384 13.2694 78.4174 11.3806 76.5043 9.02592C78.6138 7.33362 79.4969 5.9597 79.4969 4.4143C79.4969 3.01647 78.5891 1.96167 77.9759 1.54447C76.8231 0.784145 75.2534 0.661405 73.8798 0.661405C73.2176 0.661405 71.2551 0.710833 70.5191 0.710833C70.0775 0.710833 68.704 0.661405 67.5759 0.661405C67.2567 0.661405 67.0853 0.710831 67.0853 0.85783C67.0853 1.00492 67.2324 1.07862 67.4532 1.07862C67.7719 1.07862 68.1398 1.10291 68.3114 1.15232C68.9985 1.34835 69.1945 1.56913 69.2439 2.28042C69.2682 2.94268 69.2682 3.53134 69.2682 6.69565V10.3752ZM72.0154 2.10865C72.0154 1.93699 72.0644 1.8636 72.2118 1.81457C72.4326 1.76525 72.9475 1.74086 73.4874 1.74086C74.7629 1.74086 76.774 2.50119 76.774 5.4448C76.774 7.16186 76.0385 8.06919 75.3761 8.53542C75.008 8.80523 74.7136 8.87893 73.8552 8.87893C73.3156 8.87893 72.6777 8.82988 72.2118 8.6825C72.0644 8.6091 72.0154 8.53542 72.0154 8.31463V2.10865ZM86.095 10.3752C86.095 12.2883 86.095 13.9317 85.9969 14.8147C85.9232 15.428 85.8005 15.8205 85.359 15.9185C85.1629 15.9676 84.9175 15.9922 84.5987 15.9922C84.3289 15.9922 84.2552 16.1149 84.2552 16.213C84.2552 16.36 84.4026 16.4379 84.6724 16.4379C85.1139 16.4379 85.6535 16.4133 86.1687 16.3889C86.6835 16.3889 87.1498 16.36 87.3952 16.36C88.0328 16.36 88.8422 16.3889 89.8969 16.4133C90.9517 16.4623 92.2519 16.487 93.8707 16.487C94.6803 16.487 94.8763 16.487 95.0234 15.9432C95.1461 15.526 95.3179 14.1034 95.3179 13.6376C95.3179 13.4168 95.2935 13.1467 95.1218 13.1467C94.9744 13.1467 94.9253 13.245 94.8763 13.4658C94.7293 14.3242 94.4839 14.7657 93.9443 15.0111C93.38 15.2563 92.4727 15.2809 91.9084 15.2809C89.7009 15.2809 89.0386 14.9621 88.9896 13.5392C88.9649 12.9259 88.9896 11.1598 88.9896 10.4485V8.78048C88.9896 8.65814 89.0138 8.55978 89.1119 8.55978C89.6518 8.55978 92.1046 8.60911 92.497 8.65814C93.3067 8.73145 93.5764 9.05068 93.6989 9.4675C93.7482 9.73722 93.7482 10.007 93.7726 10.2278C93.7726 10.3258 93.8216 10.3996 93.969 10.3996C94.165 10.3996 94.1898 10.1051 94.1898 9.93364C94.1898 9.78626 94.2388 8.95223 94.2877 8.53542C94.4105 7.48062 94.4595 7.13711 94.4595 7.01438C94.4595 6.89204 94.3858 6.79371 94.2877 6.79371C94.1898 6.79371 94.1161 6.91643 93.9443 7.06381C93.7482 7.2846 93.4291 7.33361 92.9142 7.38255C92.4237 7.43158 89.6272 7.4316 89.1366 7.4316C89.0138 7.4316 88.9896 7.33362 88.9896 7.2109V2.05972C88.9896 1.937 89.0386 1.86359 89.1366 1.86359C89.5781 1.86359 92.1536 1.91262 92.5218 1.96165C93.6008 2.05971 93.7726 2.35411 93.9443 2.72199C94.067 2.96744 94.0913 3.33521 94.0913 3.48231C94.0913 3.65406 94.1161 3.75202 94.2631 3.75202C94.4348 3.75202 94.4839 3.50696 94.5085 3.4089C94.5576 3.16345 94.6066 2.25614 94.6313 2.03535C94.6803 1.07862 94.8026 0.833184 94.8026 0.68609C94.8026 0.588123 94.7783 0.490045 94.6556 0.490045C94.5576 0.490045 94.4348 0.563356 94.3121 0.588111C94.1404 0.612387 93.7972 0.686077 93.4047 0.710833C92.9876 0.735109 88.2046 0.710833 87.5176 0.710833C86.9044 0.710833 85.5308 0.661405 84.4026 0.661405C84.0835 0.661405 83.9121 0.710831 83.9121 0.85783C83.9121 1.00492 84.0592 1.07862 84.2799 1.07862C84.5987 1.07862 84.9665 1.10291 85.1383 1.15232C85.8252 1.34835 86.0213 1.56913 86.0706 2.28042C86.095 2.94268 86.095 3.53134 86.095 6.69565V10.3752Z" fill="#008BD0"/>
</svg>
