<svg width="3" height="3" viewBox="0 0 3 3" fill="none" xmlns="http://www.w3.org/2000/svg">
<path fill-rule="evenodd" clip-rule="evenodd" d="M1.20669 0.145996C1.33054 0.145996 1.45318 0.170399 1.5676 0.217796C1.68202 0.265193 1.78597 0.334667 1.87354 0.422244C1.96111 0.509822 2.03057 0.613791 2.07796 0.728214C2.12534 0.842637 2.14971 0.965271 2.1497 1.08912C2.14968 1.27562 2.09436 1.45794 1.99073 1.61301C1.88709 1.76807 1.73982 1.88893 1.56751 1.96029C1.39519 2.03165 1.20558 2.05031 1.02266 2.01391C0.839735 1.97751 0.671724 1.88767 0.53985 1.75579C0.407977 1.6239 0.318165 1.45588 0.281786 1.27295C0.245408 1.09003 0.264083 0.900434 0.335461 0.728126C0.406838 0.555818 0.527701 0.408556 0.682777 0.30494C0.837853 0.201324 1.02019 0.145996 1.20669 0.145996Z" fill="#E30016"/>
</svg>
