<svg width="27" height="17" viewBox="0 0 27 17" fill="none" xmlns="http://www.w3.org/2000/svg">
<path fill-rule="evenodd" clip-rule="evenodd" d="M8.12321 15.4397C8.54021 16.4252 8.71177 16.695 9.00615 16.695C9.30063 16.695 9.49675 16.3759 10.0364 15.1699C10.5271 14.1152 11.5327 11.834 12.9062 8.79257C14.0836 6.24159 14.6477 5.11309 15.5064 3.15097C16.0705 1.82636 16.3648 1.50732 16.6346 1.31129C17.0026 1.04147 17.4688 1.06593 17.6894 1.06593C17.9102 1.06593 18.0329 0.992248 18.0329 0.845058C18.0329 0.697964 17.861 0.648926 17.5912 0.648926C16.9289 0.648926 15.9233 0.697973 15.5554 0.697973C15.2855 0.697973 14.329 0.648926 13.2497 0.648926C12.8327 0.648926 12.6364 0.697964 12.6364 0.845058C12.6364 0.992248 12.8082 1.06593 13.0044 1.06593C13.2742 1.06593 13.6177 1.09043 13.863 1.16412C14.0592 1.23752 14.1573 1.31131 14.1573 1.5319C14.1573 1.70375 14.0592 2.02248 13.9609 2.2923C13.4461 3.66585 10.6742 10.3867 9.7421 12.5455H9.66843L6.03817 3.1999C5.74388 2.46395 5.54775 1.89987 5.54775 1.63006C5.54775 1.43393 5.62117 1.3113 5.76836 1.21305C5.94021 1.09042 6.25907 1.06593 6.60229 1.06593C6.7987 1.06593 6.94577 0.992248 6.94577 0.845058C6.94577 0.697964 6.70042 0.648926 6.43061 0.648926C5.35134 0.648926 4.22316 0.697973 3.68353 0.697973C2.92311 0.697973 1.69663 0.648926 0.539642 0.648926C0.220793 0.648926 0 0.6734 0 0.845058C0 0.967685 0.0492298 1.06593 0.245356 1.06593C0.416918 1.06593 0.760435 1.06595 1.07928 1.13964C1.8683 1.33576 2.18733 1.5319 2.67774 2.68486L8.12321 15.4397ZM18.8916 8.62071C18.4746 8.62071 18.3764 8.64549 18.3028 8.93977L17.935 10.6321C17.8857 10.8774 17.935 11.0738 18.1311 11.0738C18.3275 11.0738 18.7197 10.804 19.2104 10.6813C20.069 10.436 24.5577 9.65105 25.5388 9.50386C26.2255 9.38124 26.6427 9.30744 26.6427 8.96422C26.6427 8.66994 26.2992 8.62071 25.8578 8.62071H18.8916Z" fill="#CCD300"/>
</svg>
