<svg width="18" height="17" viewBox="0 0 18 17" fill="none" xmlns="http://www.w3.org/2000/svg">
<path fill-rule="evenodd" clip-rule="evenodd" d="M2.51019 9.43649C2.51019 12.4534 3.36857 13.9987 4.4723 14.9555C6.04236 16.3332 8.27461 16.3823 9.40281 16.3823C10.801 16.3823 12.4444 16.1615 13.9653 14.8818C15.7804 13.3855 16.0256 10.9328 16.0256 8.60248V6.37015C16.0256 3.20585 16.0502 2.61718 16.0745 1.95492C16.1239 1.21897 16.271 0.924887 16.8596 0.826824C17.1293 0.777505 17.252 0.75315 17.4975 0.75315C17.7426 0.75315 17.8654 0.679457 17.8654 0.532363C17.8654 0.385364 17.7183 0.335938 17.4238 0.335938C16.5898 0.335938 15.1426 0.385366 14.8974 0.385366C14.8727 0.385366 13.4255 0.335938 12.3217 0.335938C12.0276 0.335938 11.8801 0.385364 11.8801 0.532363C11.8801 0.679457 12.0028 0.75315 12.2482 0.75315C12.4934 0.75315 12.8616 0.777505 13.033 0.826824C13.7199 1.02285 13.8916 1.24363 13.9407 1.95492C13.9653 2.61718 13.9897 3.20585 13.9897 6.37015V8.99492C13.9897 11.1288 13.9407 12.9439 12.7389 14.0724C11.8801 14.9064 10.7763 15.1762 9.84427 15.1762C9.1086 15.1762 8.0782 15.1026 7.12146 14.3422C6.06705 13.5082 5.47809 12.3307 5.47809 9.28903V6.37015C5.47809 3.20585 5.47807 2.61718 5.5271 1.95492C5.57614 1.21897 5.7479 0.924887 6.3121 0.826824C6.58192 0.777505 6.70463 0.75315 6.95007 0.75315C7.17086 0.75315 7.2932 0.679457 7.2932 0.532363C7.2932 0.385364 7.1461 0.335938 6.82735 0.335938C6.04237 0.335938 4.59504 0.385366 4.0555 0.385366C3.4179 0.385366 1.97066 0.335938 0.817794 0.335938C0.498658 0.335938 0.351562 0.385364 0.351562 0.532363C0.351562 0.679457 0.474278 0.75315 0.719435 0.75315C1.01391 0.75315 1.3817 0.777505 1.55345 0.826824C2.24037 1.02285 2.4365 1.21897 2.48553 1.95492C2.53456 2.61718 2.51019 3.20585 2.51019 6.37015V9.43649Z" fill="#E30016"/>
</svg>
