<svg width="124" height="40" viewBox="0 0 124 40" fill="none" xmlns="http://www.w3.org/2000/svg">
<path fill-rule="evenodd" clip-rule="evenodd" d="M32.2664 35.7077C33.4193 35.7077 34.8419 35.585 35.8723 34.8451C37.442 33.7414 38.0309 32.4902 38.0309 30.9449C38.0309 29.0561 37.1479 27.4617 34.3023 25.892L33.4193 25.4015C31.4814 24.3221 31.138 23.5861 31.138 22.6541C31.138 21.2314 32.5362 20.4221 34.0815 20.4221C35.4799 20.4221 36.1665 21.0107 36.4856 21.4031C36.9515 21.9427 37.0495 22.5807 37.0495 22.7768C37.0495 23.0222 37.1232 23.1446 37.2702 23.1446C37.442 23.1446 37.54 22.9238 37.54 22.4823C37.54 20.8389 37.6137 20.2504 37.6137 19.9806C37.6137 19.8332 37.5157 19.7598 37.3193 19.7108C36.7553 19.5634 35.6516 19.3673 34.2533 19.3673C31.2607 19.3673 28.8076 21.0107 28.8076 23.5618C28.8076 25.4015 29.6417 26.7995 32.1927 28.2958L33.4439 29.0317C35.3571 30.1598 35.5778 31.0676 35.5778 31.9753C35.5778 33.4469 34.4494 34.6244 32.5853 34.6244C31.2364 34.6244 29.6174 34.1092 29.1512 32.5639C29.0284 32.1961 28.955 31.7545 28.955 31.4844C28.955 31.3373 28.9304 31.1413 28.7343 31.1413C28.5626 31.1413 28.4645 31.3621 28.4645 31.6808C28.4399 32.0243 28.3418 33.3242 28.3418 34.4527C28.3418 34.9185 28.4155 35.0166 28.7586 35.164C29.6911 35.585 31.0156 35.7077 32.2664 35.7077ZM56.403 37.1794C59.9595 39.2889 62.2407 40.0001 65.5521 40.0001C68.6675 40.0001 71.1692 38.9701 72.4694 38.3568C72.6165 38.2831 72.7392 38.2094 72.7392 38.0871C72.7392 37.9886 72.6412 37.8907 72.5431 37.8907C72.4448 37.8907 72.3467 37.9396 72.224 37.9886C70.7277 38.5529 69.1334 38.6513 68.0052 38.6513C66.5332 38.6513 63.7124 38.3811 59.1748 36.1736L54.931 34.1092C56.2313 33.2261 58.6349 30.9449 58.6349 27.2656C58.6349 22.3842 54.9557 19.3673 49.7802 19.3673C43.4515 19.3673 40.8271 24.0276 40.8271 27.4374C40.8271 31.1903 43.3045 35.7077 49.6328 35.7077C50.7613 35.7077 52.2575 35.487 53.0426 35.1883L56.403 37.1794ZM50.5158 34.575C47.0327 34.575 44.0404 31.9016 44.0404 26.9468C44.0404 22.1881 46.4688 20.4711 49.2896 20.4711C52.2575 20.4711 55.3973 22.8505 55.3973 27.8299C55.3973 33.8637 52.2575 34.575 50.5158 34.575ZM87.7756 30.1845C87.8739 30.1845 87.9473 30.2088 87.9964 30.3315L89.6644 34.526C89.7624 34.7714 89.6153 34.9676 89.4683 34.9922C89.2476 35.0166 89.1985 35.0903 89.1985 35.213C89.1985 35.36 89.4436 35.36 89.8361 35.3889C91.6511 35.4379 93.2212 35.4379 93.9815 35.4379C94.7909 35.4379 94.9135 35.3889 94.9135 35.213C94.9135 35.0659 94.8156 34.9922 94.6191 34.9922C94.374 34.9922 94.1286 34.9676 93.8098 34.9185C93.4173 34.8247 92.804 34.5549 91.97 32.674C90.5965 29.5223 86.9906 20.9859 86.4757 19.8332C86.2549 19.3673 86.1569 19.1709 85.8377 19.1709C85.6169 19.1709 85.4453 19.4163 85.2001 20.0049L79.5585 33.1281C79.1169 34.1829 78.7491 34.8205 77.7639 34.9676C77.5674 34.9676 77.3223 34.9922 77.1259 34.9922C76.9542 34.9922 76.8808 35.0903 76.8808 35.213C76.8808 35.3889 77.0032 35.4379 77.2734 35.4379C78.4056 35.4379 79.5584 35.3642 79.7792 35.3642C80.4661 35.3642 81.4715 35.4379 82.1832 35.4379C82.404 35.4379 82.5263 35.3889 82.5263 35.213C82.5263 35.0903 82.4773 34.9922 82.2076 34.9922H81.8887C81.2265 34.9922 81.0301 34.7715 81.0301 34.4037C81.0301 34.1582 81.1284 33.643 81.3492 33.1281L82.502 30.3315C82.551 30.2088 82.5754 30.1845 82.6981 30.1845H87.7756ZM83.1397 29.0317C83.0663 29.0317 83.0169 28.9827 83.0663 28.8843L85.1511 23.6108C85.1755 23.537 85.2001 23.4143 85.2738 23.4143C85.3228 23.4143 85.3472 23.537 85.3719 23.6108L87.4078 28.909C87.4324 28.9827 87.4078 29.0317 87.3097 29.0317H83.1397ZM97.2682 29.3752C97.2682 31.2883 97.2682 32.9317 97.1702 33.8147C97.0965 34.428 96.9738 34.8205 96.5322 34.9185C96.3362 34.9676 96.0908 34.9922 95.7719 34.9922C95.5022 34.9922 95.4284 35.1149 95.4284 35.213C95.4284 35.36 95.5759 35.4379 95.8456 35.4379C96.704 35.4379 98.0776 35.3642 98.4948 35.3642C98.8136 35.3642 100.604 35.4379 101.855 35.4379C102.125 35.4379 102.297 35.36 102.297 35.213C102.297 35.1149 102.199 34.9922 102.027 34.9922C101.757 34.9922 101.291 34.9676 100.972 34.9185C100.31 34.8205 100.212 34.428 100.138 33.8147C100.04 32.9317 100.015 31.3131 100.015 29.3752V29.0807C100.015 28.958 100.089 28.909 100.187 28.909L102.125 28.958C102.272 28.958 102.395 28.9827 102.517 29.1051C102.787 29.4242 103.695 30.8222 104.553 31.9506C105.755 33.5696 106.565 34.5508 107.497 35.0166C108.061 35.311 108.65 35.4379 109.852 35.4379H111.912C112.182 35.4379 112.329 35.3889 112.329 35.213C112.329 35.1149 112.231 34.9922 112.059 34.9922C111.887 34.9922 111.765 34.9922 111.544 34.9432C111.201 34.8695 110.44 34.7715 109.238 33.5697C107.938 32.2694 106.417 30.3806 104.504 28.0259C106.614 26.3336 107.497 24.9597 107.497 23.4143C107.497 22.0165 106.589 20.9617 105.976 20.5445C104.823 19.7841 103.253 19.6614 101.88 19.6614C101.218 19.6614 99.2551 19.7108 98.5191 19.7108C98.0775 19.7108 96.704 19.6614 95.5759 19.6614C95.2567 19.6614 95.0853 19.7108 95.0853 19.8578C95.0853 20.0049 95.2324 20.0786 95.4532 20.0786C95.7719 20.0786 96.1398 20.1029 96.3114 20.1523C96.9985 20.3484 97.1945 20.5691 97.2439 21.2804C97.2682 21.9427 97.2682 22.5313 97.2682 25.6956V29.3752ZM100.015 21.1086C100.015 20.937 100.064 20.8636 100.212 20.8146C100.433 20.7652 100.947 20.7409 101.487 20.7409C102.763 20.7409 104.774 21.5012 104.774 24.4448C104.774 26.1619 104.038 27.0692 103.376 27.5354C103.008 27.8052 102.714 27.8789 101.855 27.8789C101.316 27.8789 100.678 27.8299 100.212 27.6825C100.064 27.6091 100.015 27.5354 100.015 27.3146V21.1086ZM114.095 29.3752C114.095 31.2883 114.095 32.9317 113.997 33.8147C113.923 34.428 113.801 34.8205 113.359 34.9185C113.163 34.9676 112.917 34.9922 112.599 34.9922C112.329 34.9922 112.255 35.1149 112.255 35.213C112.255 35.36 112.403 35.4379 112.672 35.4379C113.114 35.4379 113.654 35.4133 114.169 35.3889C114.684 35.3889 115.15 35.36 115.395 35.36C116.033 35.36 116.842 35.3889 117.897 35.4133C118.952 35.4623 120.252 35.487 121.871 35.487C122.68 35.487 122.876 35.487 123.023 34.9432C123.146 34.526 123.318 33.1034 123.318 32.6376C123.318 32.4168 123.294 32.1467 123.122 32.1467C122.974 32.1467 122.925 32.245 122.876 32.4658C122.729 33.3242 122.484 33.7657 121.944 34.0111C121.38 34.2563 120.473 34.2809 119.908 34.2809C117.701 34.2809 117.039 33.9621 116.99 32.5392C116.965 31.9259 116.99 30.1598 116.99 29.4485V27.7805C116.99 27.6581 117.014 27.5598 117.112 27.5598C117.652 27.5598 120.105 27.6091 120.497 27.6581C121.307 27.7314 121.576 28.0507 121.699 28.4675C121.748 28.7372 121.748 29.007 121.773 29.2278C121.773 29.3258 121.822 29.3996 121.969 29.3996C122.165 29.3996 122.19 29.1051 122.19 28.9336C122.19 28.7863 122.239 27.9522 122.288 27.5354C122.41 26.4806 122.46 26.1371 122.46 26.0144C122.46 25.892 122.386 25.7937 122.288 25.7937C122.19 25.7937 122.116 25.9164 121.944 26.0638C121.748 26.2846 121.429 26.3336 120.914 26.3825C120.424 26.4316 117.627 26.4316 117.137 26.4316C117.014 26.4316 116.99 26.3336 116.99 26.2109V21.0597C116.99 20.937 117.039 20.8636 117.137 20.8636C117.578 20.8636 120.154 20.9126 120.522 20.9617C121.601 21.0597 121.773 21.3541 121.944 21.722C122.067 21.9674 122.091 22.3352 122.091 22.4823C122.091 22.6541 122.116 22.752 122.263 22.752C122.435 22.752 122.484 22.507 122.509 22.4089C122.558 22.1635 122.607 21.2561 122.631 21.0354C122.68 20.0786 122.803 19.8332 122.803 19.6861C122.803 19.5881 122.778 19.49 122.656 19.49C122.558 19.49 122.435 19.5634 122.312 19.5881C122.14 19.6124 121.797 19.6861 121.405 19.7108C120.988 19.7351 116.205 19.7108 115.518 19.7108C114.904 19.7108 113.531 19.6614 112.403 19.6614C112.083 19.6614 111.912 19.7108 111.912 19.8578C111.912 20.0049 112.059 20.0786 112.28 20.0786C112.599 20.0786 112.967 20.1029 113.138 20.1523C113.825 20.3484 114.021 20.5691 114.071 21.2804C114.095 21.9427 114.095 22.5313 114.095 25.6956V29.3752Z" fill="#008BD0"/>
<path fill-rule="evenodd" clip-rule="evenodd" d="M8.12321 34.4397C8.54021 35.4252 8.71177 35.695 9.00615 35.695C9.30063 35.695 9.49675 35.3759 10.0364 34.1699C10.5271 33.1152 11.5327 30.834 12.9062 27.7926C14.0836 25.2416 14.6477 24.1131 15.5064 22.151C16.0705 20.8264 16.3648 20.5073 16.6346 20.3113C17.0026 20.0415 17.4688 20.0659 17.6894 20.0659C17.9102 20.0659 18.0329 19.9922 18.0329 19.8451C18.0329 19.698 17.861 19.6489 17.5912 19.6489C16.9289 19.6489 15.9233 19.698 15.5554 19.698C15.2855 19.698 14.329 19.6489 13.2497 19.6489C12.8327 19.6489 12.6364 19.698 12.6364 19.8451C12.6364 19.9922 12.8082 20.0659 13.0044 20.0659C13.2742 20.0659 13.6177 20.0904 13.863 20.1641C14.0592 20.2375 14.1573 20.3113 14.1573 20.5319C14.1573 20.7038 14.0592 21.0225 13.9609 21.2923C13.4461 22.6659 10.6742 29.3867 9.7421 31.5455H9.66843L6.03817 22.1999C5.74388 21.464 5.54775 20.8999 5.54775 20.6301C5.54775 20.4339 5.62117 20.3113 5.76836 20.213C5.94021 20.0904 6.25907 20.0659 6.60229 20.0659C6.7987 20.0659 6.94577 19.9922 6.94577 19.8451C6.94577 19.698 6.70042 19.6489 6.43061 19.6489C5.35134 19.6489 4.22316 19.698 3.68353 19.698C2.92311 19.698 1.69663 19.6489 0.539642 19.6489C0.220793 19.6489 0 19.6734 0 19.8451C0 19.9677 0.0492298 20.0659 0.245356 20.0659C0.416918 20.0659 0.760435 20.0659 1.07928 20.1396C1.8683 20.3358 2.18733 20.5319 2.67774 21.6849L8.12321 34.4397ZM18.8916 27.6207C18.4746 27.6207 18.3764 27.6455 18.3028 27.9398L17.935 29.6321C17.8857 29.8774 17.935 30.0738 18.1311 30.0738C18.3275 30.0738 18.7197 29.804 19.2104 29.6813C20.069 29.436 24.5577 28.6511 25.5388 28.5039C26.2255 28.3812 26.6427 28.3074 26.6427 27.9642C26.6427 27.6699 26.2992 27.6207 25.8578 27.6207H18.8916Z" fill="#CCD300"/>
<path fill-rule="evenodd" clip-rule="evenodd" d="M61.0732 17.3244L66.4384 11.783C74.4964 3.4614 59.896 -3.30829 56.917 4.96794L54.9613 10.3981C53.8536 13.8353 57.1078 18.8319 61.0732 17.3244Z" fill="#E30016"/>
<path fill-rule="evenodd" clip-rule="evenodd" d="M63.1618 0C63.9769 0 64.784 0.160544 65.5371 0.472468C66.2901 0.784393 66.9743 1.2416 67.5507 1.81796C68.127 2.39432 68.5842 3.07856 68.8961 3.83161C69.2081 4.58465 69.3686 5.39177 69.3686 6.20686C69.3686 7.43444 69.0045 8.63442 68.3225 9.65511C67.6405 10.6758 66.6711 11.4713 65.537 11.9411C64.4028 12.4108 63.1549 12.5337 61.9509 12.2942C60.7469 12.0547 59.641 11.4636 58.773 10.5956C57.9049 9.72753 57.3138 8.62158 57.0743 7.41759C56.8348 6.2136 56.9578 4.96565 57.4276 3.83152C57.8973 2.69739 58.6929 1.72802 59.7136 1.04602C60.7343 0.364017 61.9343 1.46773e-10 63.1618 0Z" fill="#E30016"/>
<path fill-rule="evenodd" clip-rule="evenodd" d="M58.5609 3.9986C58.9392 2.93398 59.818 2.09632 61.0041 1.6699C62.1901 1.24349 63.5863 1.26323 64.8853 1.72481C65.8541 2.06902 66.7175 2.64095 67.3663 3.36824C68.0151 4.09554 68.4201 4.94556 68.5302 5.81079C68.6403 6.67602 68.4505 7.51759 67.9849 8.22912C67.5192 8.94064 66.7985 9.49016 65.914 9.80816C65.0295 10.1262 64.0209 10.1983 63.0157 10.0156C62.0105 9.8329 61.0539 9.40349 60.2668 8.78164C59.4798 8.1598 58.8976 7.37346 58.5939 6.52208C58.2903 5.67071 58.2788 4.79253 58.5609 3.9986Z" fill="white"/>
<path fill-rule="evenodd" clip-rule="evenodd" d="M61.2148 9.86475C64.8306 11.8029 67.3972 16.2691 69.0093 23.0367L69.2749 22.9165C69.8723 15.9832 69.0843 11.4832 66.6243 9.9205L61.2148 9.86475Z" fill="#E30016"/>
<path fill-rule="evenodd" clip-rule="evenodd" d="M70.318 27.416C70.5681 27.416 70.808 27.5154 70.9848 27.6922C71.1617 27.8691 71.261 28.1089 71.261 28.359C71.261 28.5455 71.2057 28.7279 71.1021 28.8829C70.9985 29.038 70.8512 29.1589 70.6789 29.2303C70.5066 29.3016 70.317 29.3203 70.134 29.2839C69.9511 29.2475 69.7831 29.1577 69.6512 29.0258C69.5193 28.894 69.4295 28.7259 69.3931 28.543C69.3567 28.3601 69.3754 28.1705 69.4468 27.9981C69.5181 27.8258 69.639 27.6786 69.7941 27.5749C69.9492 27.4713 70.1315 27.416 70.318 27.416Z" fill="#E30016"/>
<path fill-rule="evenodd" clip-rule="evenodd" d="M67.5347 23.6455C67.6586 23.6455 67.7812 23.6699 67.8956 23.7173C68.0101 23.7647 68.114 23.8341 68.2016 23.9217C68.2892 24.0093 68.3587 24.1133 68.4061 24.2277C68.4535 24.3421 68.4778 24.4648 68.4778 24.5886C68.4778 24.7751 68.4225 24.9574 68.3189 25.1125C68.2152 25.2676 68.068 25.3884 67.8956 25.4598C67.7233 25.5311 67.5337 25.5498 67.3508 25.5134C67.1679 25.477 66.9999 25.3872 66.868 25.2553C66.7361 25.1234 66.6463 24.9554 66.6099 24.7725C66.5735 24.5896 66.5922 24.4 66.6636 24.2277C66.7349 24.0554 66.8558 23.9081 67.0108 23.8045C67.1659 23.7009 67.3482 23.6455 67.5347 23.6455Z" fill="#E30016"/>
<path fill-rule="evenodd" clip-rule="evenodd" d="M71.9312 19.9141C72.055 19.914 72.1777 19.9384 72.2921 19.9858C72.4065 20.0332 72.5105 20.1027 72.5981 20.1903C72.6856 20.2778 72.7551 20.3818 72.8025 20.4962C72.8499 20.6106 72.8743 20.7332 72.8743 20.8571C72.8743 21.0436 72.819 21.2259 72.7154 21.381C72.6118 21.5361 72.4645 21.657 72.2922 21.7283C72.1199 21.7997 71.9303 21.8184 71.7474 21.782C71.5644 21.7456 71.3964 21.6558 71.2645 21.5239C71.1326 21.3921 71.0428 21.2241 71.0064 21.0411C70.97 20.8582 70.9887 20.6686 71.0601 20.4963C71.1314 20.324 71.2522 20.1767 71.4073 20.0731C71.5624 19.9694 71.7447 19.9141 71.9312 19.9141Z" fill="#E30016"/>
<path fill-rule="evenodd" clip-rule="evenodd" d="M68.6128 30.6694C68.7367 30.6694 68.8593 30.6938 68.9737 30.7412C69.0882 30.7886 69.1921 30.858 69.2797 30.9456C69.3673 31.0332 69.4368 31.1371 69.4842 31.2516C69.5316 31.366 69.556 31.4886 69.556 31.6125C69.556 31.799 69.5006 31.9813 69.397 32.1364C69.2934 32.2914 69.1461 32.4123 68.9738 32.4837C68.8015 32.555 68.6119 32.5737 68.429 32.5373C68.2461 32.501 68.078 32.4112 67.9461 32.2793C67.8143 32.1474 67.7245 31.9794 67.6881 31.7965C67.6517 31.6136 67.6703 31.424 67.7417 31.2517C67.813 31.0793 67.9339 30.932 68.089 30.8284C68.244 30.7248 68.4263 30.6695 68.6128 30.6694Z" fill="#E30016"/>
<path fill-rule="evenodd" clip-rule="evenodd" d="M71.2067 24.146C71.3305 24.146 71.4532 24.1704 71.5676 24.2178C71.682 24.2652 71.786 24.3347 71.8735 24.4222C71.9611 24.5098 72.0306 24.6138 72.078 24.7282C72.1253 24.8426 72.1497 24.9653 72.1497 25.0891C72.1497 25.2756 72.0944 25.4579 71.9907 25.613C71.8871 25.7681 71.7398 25.8889 71.5675 25.9603C71.3952 26.0317 71.2056 26.0503 71.0227 26.0139C70.8397 25.9775 70.6717 25.8877 70.5399 25.7558C70.408 25.6239 70.3182 25.4559 70.2818 25.273C70.2454 25.09 70.2641 24.9004 70.3355 24.7281C70.4068 24.5558 70.5277 24.4086 70.6828 24.3049C70.8379 24.2013 71.0202 24.146 71.2067 24.146Z" fill="#E30016"/>
<path fill-rule="evenodd" clip-rule="evenodd" d="M66.5344 21.4175C66.6026 21.4175 66.6701 21.4309 66.7331 21.457C66.796 21.483 66.8533 21.5213 66.9015 21.5695C66.9497 21.6177 66.9879 21.6749 67.014 21.7379C67.04 21.8008 67.0535 21.8683 67.0534 21.9365C67.0534 22.0391 67.023 22.1394 66.9659 22.2247C66.9089 22.3101 66.8279 22.3766 66.7331 22.4158C66.6382 22.4551 66.5339 22.4653 66.4333 22.4453C66.3326 22.4253 66.2402 22.3759 66.1676 22.3033C66.0951 22.2307 66.0456 22.1383 66.0256 22.0376C66.0056 21.937 66.0158 21.8327 66.0551 21.7379C66.0944 21.643 66.1609 21.562 66.2462 21.505C66.3315 21.448 66.4318 21.4175 66.5344 21.4175Z" fill="#E30016"/>
<path fill-rule="evenodd" clip-rule="evenodd" d="M68.8705 21.8623C68.9386 21.8623 69.0061 21.8758 69.0691 21.9018C69.132 21.9279 69.1892 21.9661 69.2374 22.0143C69.2856 22.0625 69.3238 22.1197 69.3499 22.1827C69.376 22.2457 69.3894 22.3132 69.3894 22.3813C69.3894 22.484 69.3589 22.5843 69.3019 22.6696C69.2448 22.7549 69.1638 22.8214 69.069 22.8607C68.9742 22.8999 68.8698 22.9102 68.7692 22.8901C68.6685 22.8701 68.5761 22.8207 68.5035 22.7481C68.431 22.6755 68.3815 22.5831 68.3615 22.4824C68.3415 22.3818 68.3518 22.2774 68.3911 22.1826C68.4303 22.0878 68.4969 22.0068 68.5822 21.9498C68.6675 21.8928 68.7679 21.8623 68.8705 21.8623Z" fill="#E30016"/>
<path fill-rule="evenodd" clip-rule="evenodd" d="M70.1517 22.5117C70.2199 22.5117 70.2874 22.5252 70.3503 22.5512C70.4133 22.5773 70.4705 22.6156 70.5187 22.6638C70.5669 22.7119 70.6051 22.7692 70.6312 22.8321C70.6572 22.8951 70.6707 22.9626 70.6706 23.0307C70.6706 23.1334 70.6402 23.2337 70.5831 23.319C70.5261 23.4043 70.4451 23.4708 70.3502 23.5101C70.2554 23.5493 70.1511 23.5596 70.0504 23.5396C69.9498 23.5195 69.8573 23.4701 69.7848 23.3975C69.7122 23.325 69.6628 23.2325 69.6428 23.1318C69.6228 23.0312 69.633 22.9268 69.6723 22.832C69.7116 22.7372 69.7781 22.6562 69.8634 22.5992C69.9488 22.5422 70.0491 22.5117 70.1517 22.5117Z" fill="#E30016"/>
<path fill-rule="evenodd" clip-rule="evenodd" d="M72.7103 22.623C72.7784 22.623 72.846 22.6365 72.9089 22.6625C72.9719 22.6886 73.0291 22.7269 73.0773 22.7751C73.1254 22.8232 73.1637 22.8805 73.1897 22.9435C73.2158 23.0064 73.2292 23.0739 73.2292 23.142C73.2292 23.2447 73.1987 23.345 73.1417 23.4303C73.0847 23.5156 73.0036 23.5821 72.9088 23.6214C72.814 23.6607 72.7097 23.6709 72.609 23.6509C72.5084 23.6308 72.4159 23.5814 72.3434 23.5088C72.2708 23.4363 72.2214 23.3438 72.2014 23.2432C72.1814 23.1425 72.1916 23.0382 72.2309 22.9434C72.2702 22.8486 72.3367 22.7675 72.422 22.7105C72.5074 22.6535 72.6077 22.623 72.7103 22.623Z" fill="#E30016"/>
<path d="M62.5898 9.88553C64.5371 10.5787 66.152 12.6102 67.4648 15.8602L67.5881 15.7802C67.3635 12.2815 66.632 10.099 65.2889 9.50586L62.5898 9.88553Z" fill="url(#paint0_linear)"/>
<path fill-rule="evenodd" clip-rule="evenodd" d="M62.5102 29.4365C62.5102 32.4534 63.3686 33.9987 64.4723 34.9555C66.0424 36.3332 68.2746 36.3823 69.4028 36.3823C70.801 36.3823 72.4444 36.1615 73.9653 34.8818C75.7804 33.3855 76.0256 30.9328 76.0256 28.6025V26.3702C76.0256 23.2058 76.0502 22.6172 76.0745 21.9549C76.1239 21.219 76.271 20.9249 76.8596 20.8268C77.1293 20.7775 77.252 20.7532 77.4975 20.7532C77.7426 20.7532 77.8654 20.6795 77.8654 20.5324C77.8654 20.3854 77.7183 20.3359 77.4238 20.3359C76.5898 20.3359 75.1426 20.3854 74.8974 20.3854C74.8727 20.3854 73.4255 20.3359 72.3217 20.3359C72.0276 20.3359 71.8801 20.3854 71.8801 20.5324C71.8801 20.6795 72.0028 20.7532 72.2482 20.7532C72.4934 20.7532 72.8616 20.7775 73.033 20.8268C73.7199 21.0229 73.8916 21.2436 73.9407 21.9549C73.9653 22.6172 73.9897 23.2058 73.9897 26.3702V28.9949C73.9897 31.1288 73.9407 32.9439 72.7389 34.0724C71.8801 34.9064 70.7763 35.1762 69.8443 35.1762C69.1086 35.1762 68.0782 35.1026 67.1215 34.3422C66.067 33.5082 65.4781 32.3307 65.4781 29.289V26.3702C65.4781 23.2058 65.4781 22.6172 65.5271 21.9549C65.5761 21.219 65.7479 20.9249 66.3121 20.8268C66.5819 20.7775 66.7046 20.7532 66.9501 20.7532C67.1709 20.7532 67.2932 20.6795 67.2932 20.5324C67.2932 20.3854 67.1461 20.3359 66.8274 20.3359C66.0424 20.3359 64.595 20.3854 64.0555 20.3854C63.4179 20.3854 61.9707 20.3359 60.8178 20.3359C60.4987 20.3359 60.3516 20.3854 60.3516 20.5324C60.3516 20.6795 60.4743 20.7532 60.7194 20.7532C61.0139 20.7532 61.3817 20.7775 61.5535 20.8268C62.2404 21.0229 62.4365 21.219 62.4855 21.9549C62.5346 22.6172 62.5102 23.2058 62.5102 26.3702V29.4365Z" fill="#E30016"/>
<defs>
<linearGradient id="paint0_linear" x1="64.9101" y1="9.90777" x2="67.8115" y2="15.0659" gradientUnits="userSpaceOnUse">
<stop stop-color="white"/>
<stop offset="0.533067" stop-color="#F49396"/>
<stop offset="0.666667" stop-color="#F49396"/>
</linearGradient>
</defs>
</svg>
